<svg width="14" height="14" viewBox="0 0 14 14" fill="none" xmlns="http://www.w3.org/2000/svg">
<g clip-path="url(#clip0_25_6737)">
<path d="M7.00008 8.74994C6.84537 8.74994 6.697 8.68848 6.5876 8.57908C6.47821 8.46968 6.41675 8.32131 6.41675 8.1666C6.43841 7.78543 6.55437 7.4156 6.75423 7.09031C6.95409 6.76501 7.2316 6.49443 7.56183 6.30285C7.77762 6.18459 7.95035 6.00093 8.05516 5.7783C8.15998 5.55566 8.19149 5.30553 8.14517 5.06385C8.10023 4.83302 7.98739 4.62086 7.82111 4.45458C7.65482 4.28829 7.44267 4.17545 7.21183 4.13052C7.04332 4.09942 6.87003 4.10582 6.70428 4.14926C6.53853 4.19271 6.38438 4.27213 6.25279 4.38189C6.1212 4.49165 6.01541 4.62905 5.94292 4.78432C5.87044 4.93959 5.83305 5.10892 5.83342 5.28027C5.83342 5.43498 5.77196 5.58335 5.66256 5.69275C5.55317 5.80214 5.40479 5.8636 5.25008 5.8636C5.09537 5.8636 4.947 5.80214 4.8376 5.69275C4.72821 5.58335 4.66675 5.43498 4.66675 5.28027C4.66669 4.93946 4.74129 4.60277 4.8853 4.29389C5.02932 3.985 5.23925 3.71141 5.50033 3.49235C5.74986 3.28375 6.04023 3.12962 6.35282 3.03985C6.66542 2.95008 6.99333 2.92664 7.31551 2.97105C7.63769 3.01546 7.94704 3.12673 8.22369 3.29773C8.50034 3.46872 8.73818 3.69566 8.92197 3.96399C9.10575 4.23231 9.23141 4.53609 9.29089 4.85584C9.35036 5.17559 9.34233 5.50423 9.26732 5.82069C9.19231 6.13716 9.05197 6.43444 8.85531 6.69347C8.65864 6.95251 8.41 7.16757 8.12533 7.32485C7.97784 7.41574 7.85259 7.53853 7.75881 7.6842C7.66503 7.82987 7.60509 7.99472 7.58342 8.1666C7.58342 8.32131 7.52196 8.46968 7.41256 8.57908C7.30317 8.68848 7.15479 8.74994 7.00008 8.74994ZM7.46267 13.8599C8.72267 13.3536 12.8334 11.3627 12.8334 7.02502V4.0086C12.8341 3.39553 12.6412 2.79788 12.2824 2.30079C11.9236 1.80369 11.417 1.43251 10.8349 1.2401L7.18383 0.0296853C7.06464 -0.0105462 6.93553 -0.0105462 6.81633 0.0296853L3.16525 1.2401C2.58315 1.43251 2.0766 1.80369 1.71777 2.30079C1.35893 2.79788 1.1661 3.39553 1.16675 4.0086V7.02502C1.16675 10.8529 5.253 13.1944 6.506 13.8209C6.65748 13.9121 6.82531 13.9729 7.00008 13.9999C7.16164 13.9824 7.31851 13.9349 7.46267 13.8599ZM10.4674 2.34727C10.8166 2.46301 11.1204 2.68582 11.3356 2.98406C11.5509 3.28229 11.6668 3.64078 11.6667 4.0086V7.02502C11.6667 10.6318 8.116 12.3398 7.0275 12.7773C5.92617 12.2266 2.33342 10.1844 2.33342 7.02502V4.0086C2.33337 3.64078 2.44922 3.28229 2.66452 2.98406C2.87981 2.68582 3.18361 2.46301 3.53275 2.34727L7.00008 1.1981L10.4674 2.34727ZM7.00008 9.9166C6.88471 9.9166 6.77193 9.95081 6.676 10.0149C6.58007 10.079 6.5053 10.1701 6.46115 10.2767C6.417 10.3833 6.40545 10.5006 6.42796 10.6137C6.45047 10.7269 6.50602 10.8308 6.5876 10.9124C6.66918 10.994 6.77312 11.0496 6.88628 11.0721C6.99944 11.0946 7.11672 11.083 7.22332 11.0389C7.32991 10.9947 7.42101 10.9199 7.48511 10.824C7.5492 10.7281 7.58342 10.6153 7.58342 10.4999C7.58342 10.3452 7.52196 10.1969 7.41256 10.0875C7.30317 9.97806 7.15479 9.9166 7.00008 9.9166Z" fill="#F21A05"/>
</g>
<defs>
<clipPath id="clip0_25_6737">
<rect width="14" height="14" fill="white"/>
</clipPath>
</defs>
</svg>
