<svg width="13" height="13" viewBox="0 0 13 13" fill="none" xmlns="http://www.w3.org/2000/svg">
<g clip-path="url(#clip0_25_6732)">
<path d="M10.2375 -0.0003782H2.7625C2.03722 -0.00687753 1.339 0.274651 0.821081 0.782416C0.303161 1.29018 0.00786242 1.98269 0 2.70795L0 4.33295C0 4.47661 0.0570683 4.61439 0.158651 4.71597C0.260233 4.81755 0.398008 4.87462 0.541667 4.87462C0.685326 4.87462 0.823101 4.81755 0.924683 4.71597C1.02627 4.61439 1.08333 4.47661 1.08333 4.33295V2.70795C1.09103 2.26996 1.27214 1.8529 1.58693 1.54827C1.90172 1.24363 2.32449 1.07629 2.7625 1.08296H10.2375C10.6755 1.07629 11.0983 1.24363 11.4131 1.54827C11.7279 1.8529 11.909 2.26996 11.9167 2.70795V10.2913C11.909 10.7293 11.7279 11.1463 11.4131 11.451C11.0983 11.7556 10.6755 11.923 10.2375 11.9163H2.7625C2.32449 11.923 1.90172 11.7556 1.58693 11.451C1.27214 11.1463 1.09103 10.7293 1.08333 10.2913V8.66629C1.08333 8.52263 1.02627 8.38485 0.924683 8.28327C0.823101 8.18169 0.685326 8.12462 0.541667 8.12462C0.398008 8.12462 0.260233 8.18169 0.158651 8.28327C0.0570683 8.38485 0 8.52263 0 8.66629L0 10.2913C0.00786242 11.0166 0.303161 11.7091 0.821081 12.2168C1.339 12.7246 2.03722 13.0061 2.7625 12.9996H10.2375C10.9628 13.0061 11.661 12.7246 12.1789 12.2168C12.6968 11.7091 12.9921 11.0166 13 10.2913V2.70795C12.9921 1.98269 12.6968 1.29018 12.1789 0.782416C11.661 0.274651 10.9628 -0.00687753 10.2375 -0.0003782Z" fill="#FBFBFB"/>
<path d="M1.625 6.49985C1.625 6.64351 1.68207 6.78129 1.78365 6.88287C1.88523 6.98445 2.02301 7.04152 2.16667 7.04152L9.31017 7.02527L6.96854 9.3669C6.91681 9.41686 6.87554 9.47663 6.84715 9.54272C6.81876 9.6088 6.80382 9.67988 6.8032 9.7518C6.80257 9.82373 6.81628 9.89505 6.84351 9.96162C6.87075 10.0282 6.91097 10.0887 6.96183 10.1395C7.01269 10.1904 7.07316 10.2306 7.13973 10.2578C7.2063 10.2851 7.27763 10.2988 7.34955 10.2982C7.42147 10.2975 7.49255 10.2826 7.55864 10.2542C7.62472 10.2258 7.68449 10.1845 7.73446 10.1328L10.2185 7.64873C10.5232 7.344 10.6943 6.93075 10.6943 6.49985C10.6943 6.06896 10.5232 5.65571 10.2185 5.35098L7.73554 2.8669C7.63338 2.76823 7.49656 2.71363 7.35453 2.71486C7.21251 2.7161 7.07665 2.77307 6.97622 2.87349C6.87579 2.97392 6.81883 3.10978 6.81759 3.2518C6.81636 3.39383 6.87096 3.53065 6.96962 3.63281L9.27821 5.94194L2.16667 5.95819C2.02301 5.95819 1.88523 6.01526 1.78365 6.11684C1.68207 6.21842 1.625 6.3562 1.625 6.49985Z" fill="#FBFBFB"/>
</g>
<defs>
<clipPath id="clip0_25_6732">
<rect width="13" height="13" fill="white"/>
</clipPath>
</defs>
</svg>
